<svg id="Figma-logo" xmlns="http://www.w3.org/2000/svg" width="18.959" height="28.438" viewBox="0 0 18.959 28.438">
  <path id="path0_fill" d="M4.74,209.479a4.741,4.741,0,0,0,4.74-4.74V200H4.74a4.74,4.74,0,1,0,0,9.479Z" transform="translate(0 -181.041)" fill="#0acf83"/>
  <path id="path1_fill" d="M0,104.74A4.741,4.741,0,0,1,4.74,100h4.74v9.479H4.74A4.741,4.741,0,0,1,0,104.74Z" transform="translate(0 -90.521)" fill="#a259ff"/>
  <path id="path1_fill_1_" d="M0,4.74A4.741,4.741,0,0,1,4.74,0h4.74V9.479H4.74A4.741,4.741,0,0,1,0,4.74Z" fill="#f24e1e"/>
  <path id="path2_fill" d="M100,0h4.74a4.74,4.74,0,0,1,0,9.479H100Z" transform="translate(-90.521)" fill="#ff7262"/>
  <path id="path3_fill" d="M109.479,104.74a4.74,4.74,0,1,1-4.74-4.74A4.741,4.741,0,0,1,109.479,104.74Z" transform="translate(-90.521 -90.521)" fill="#1abcfe"/>
</svg>
