<svg xmlns="http://www.w3.org/2000/svg" width="958.46" height="532.067" viewBox="0 0 958.46 532.067">
  <g id="Groupe_2" data-name="Groupe 2" transform="translate(0 -0.005)" opacity="0.023">
    <path id="Tracé_7" data-name="Tracé 7" d="M762.97,246.75A54.867,54.867,0,0,1,748.3,284.182c-.717.781-1.472,1.536-2.24,2.266a832.642,832.642,0,0,0-89.407-60.027c.384-.973.794-1.933,1.242-2.88A55.1,55.1,0,0,1,762.97,246.75Z" transform="translate(-96.795 -191.641)" fill="#edf2f8"/>
    <path id="Tracé_8" data-name="Tracé 8" d="M871.25,346.47l-.051.576q-54.362-3.745-108.712-7.5c-26.179-1.805-53.268-3.853-76.4-16.245-8.782-4.7-17.333-10.971-27.293-11.406-12.354-.55-23.133,8.091-31.607,17.1-50.093,53.357-64.6,134.942-120.8,181.809A1784.71,1784.71,0,0,1,632.947,258.215c9.013-14.914,19.7-30.839,36.434-35.7,15.964-4.647,32.3,2.138,46.995,10.843,3.149,1.869,6.222,3.828,9.192,5.774q33.969,22.236,66.825,46.175Q832.736,314.664,871.25,346.47Z" transform="translate(-160.384 -179.218)" fill="#f2f2f2"/>
    <path id="Tracé_9" data-name="Tracé 9" d="M1043.193,469.988A858.542,858.542,0,0,0,909.1,321.143q-21.718-19.087-44.716-36.766a832.652,832.652,0,0,0-89.407-60.027q-15.285-8.872-30.929-17.039c-8.1-4.212-16.732-8.065-26.077-7.463a34.7,34.7,0,0,0-18.012,6.926c-11.483,8.385-19.087,21.481-25.347,33.963-5.479,10.945-10.587,22.108-15.8,33.207-2.215,4.724-4.429,9.435-6.721,14.12q-11.983,24.618-24.528,48.966-16.168,31.377-33.271,62.28-35.928,64.962-75.824,127.581-58.644,92.038-125.482,178.493c-5.466,7.054-7.719,8.692-13.263,15.695-1.28,1.639-3.559-.666-2.292-2.291,46.227-58.427,86.475-113.628,127.056-176.125q45.894-70.684,86.744-144.505,13.115-23.677,25.68-47.648,20.336-38.808,39.263-78.346,4.993-10.408,9.883-20.892c10.357-22.185,25.437-55.175,54.561-54.727,8.564.128,16.514,3.6,24.016,7.438,7.643,3.93,15.144,8.1,22.633,12.341q4.493,2.535,8.948,5.146,17.647,10.254,34.769,21.366,28.573,18.53,55.636,39.275,12.846,9.851,25.309,20.15A862.244,862.244,0,0,1,1031.582,448.6q7.354,9.774,14.4,19.766C1047.188,470.065,1044.384,471.678,1043.193,469.988Z" transform="translate(-215.116 -189.57)" fill="#e4e4e4"/>
    <path id="Tracé_10" data-name="Tracé 10" d="M753.727,288.519c1.692-1.886,3.374-3.773,5.077-5.659,13.431-14.854,27.843-29.536,46.287-38.052a67.154,67.154,0,0,1,28.135-6.522,80.292,80.292,0,0,1,29.212,6.371c4.4,1.757,8.7,3.751,12.935,5.875,4.84,2.436,9.594,5.034,14.326,7.653q13.324,7.373,26.3,15.393,25.823,15.959,50.028,34.354,12.548,9.54,24.578,19.7,11.189,9.443,21.925,19.392c1.531,1.412,3.816-.873,2.285-2.285-1.886-1.757-3.794-3.5-5.7-5.228q-8.085-7.309-16.428-14.337-15.215-12.838-31.217-24.685-24.885-18.433-51.483-34.365-13.291-7.955-26.949-15.242c-2.749-1.466-5.53-2.9-8.344-4.258a133.008,133.008,0,0,0-19.834-8.074,70.56,70.56,0,0,0-29.956-2.943,77.993,77.993,0,0,0-27.639,9.561c-18.109,10.122-32.155,25.774-45.823,41.048C750.061,287.775,752.336,290.071,753.727,288.519Z" transform="translate(-56.863 -173.239)" fill="#e4e4e4"/>
    <path id="Tracé_11" data-name="Tracé 11" d="M589.077,391.406l-43.395-15.872-21.546-7.88a220.334,220.334,0,0,0-21.271-7.326,33.558,33.558,0,0,0-19.253.245,44.374,44.374,0,0,0-15.017,9.309,121.866,121.866,0,0,0-12.317,13.154c-4.691,5.637-9.313,11.334-13.955,17.011q-28.74,35.148-57.1,70.6t-56.347,71.206q-28.052,35.841-55.719,71.981-3.389,4.427-6.773,8.859c-1.246,1.632-4.056.023-2.792-1.632q27.871-36.5,56.13-72.709,28.329-36.292,57.049-72.275T434.6,404.422q7.252-8.887,14.527-17.754c4.091-4.986,8.137-10.027,12.624-14.668,8.237-8.519,18.529-16.048,30.848-16.252,7.243-.12,14.253,2.178,20.982,4.613,7.255,2.624,14.492,5.3,21.737,7.948l43.7,15.983,10.925,4c1.939.709,1.1,3.836-.86,3.118Z" transform="translate(-263.27 -122.197)" fill="#e4e4e4"/>
    <path id="Tracé_12" data-name="Tracé 12" d="M806.088,257.214c22.052-11.334,50.293-9.114,70.558,5.046a1006.387,1006.387,0,0,0-114.494,26.722C777.77,279.829,789.987,265.489,806.088,257.214Z" transform="translate(-52.149 -166.954)" fill="#f2f2f2"/>
    <path id="Tracé_13" data-name="Tracé 13" d="M842.818,258.582l4.245,3.451c-1.436-1.208-2.929-2.34-4.462-3.412Z" transform="translate(-18.104 -163.315)" fill="#f2f2f2"/>
    <path id="Tracé_14" data-name="Tracé 14" d="M455.962,384.706c4.272-5.2,8.89-10.644,15.279-12.756l5.965.235A676.635,676.635,0,0,1,296.985,578.221Z" transform="translate(-249.002 -115.339)" fill="#f2f2f2"/>
  </g>
</svg>
