<svg xmlns="http://www.w3.org/2000/svg" width="378.005" height="467.651" viewBox="0 0 378.005 467.651">
  <path id="box_design_white" d="M450.3,160.838l-3.858,8.638,98.539-8,.155.286,23.241,42.731,31.491-43.207.408.322L637.7,191.171l-1.345,17.707,15.782-13.617.734.668L635.48,220.368l-2.745,36.144,20.226-6.985V473.406l-.955.208-24.035-52.67-10.606,37.967-1.106,14.563,37.3,18.954L617.523,510.9l10.646,34.816,24.519,12.755-.364.925-21.817-6.035,22.972,75.128-46.707-43.323.018-.24,2.836-37.34-100.739-27.87V484.788l-44.918-23.367-39.2,55.1-6.759-80.13,45.648,23.747,13.2-18.548-45.634-31.612-10.956,1.382-20.543,57.073L375.348,417.02,348.3,420.432l20.242-17.758-25.5-53.783-67.488-46.75,39.482-12.317-18.866-39.79.391-.233,42.786-25.487-14.725-33.642,50.4,12.393,13.2-7.862,12.3-6.809-9.358-14.428,41.511-3.371Zm117.425,44.548-23.312-42.862-98.436,7.993-20.534,45.974-6.547-1.61,27.888,43L492.09,190l1.729,14.057,8.9-24.738,52.944,42.6,12.054-16.538Zm68.935-13.761-36.6-28.911-31.16,42.75,22.806,41.93,43.57-37.594ZM445.3,169.569l2.861-6.407L435.092,170.4Zm-20.435,45.752,19.97-44.711-11.869.964L401.94,188.749l16.16,24.907ZM401.4,187.907l29.152-16.137-37.637,3.056Zm153.681,34.827-51.889-41.756-9.1,25.28,6.211,50.5L532.9,242.065l.544,10.363Zm-138.4-9.426-15.615-24.074-12.355,6.839L376.4,203.4ZM373.8,203.792l-47.445-11.667,13.86,31.675Zm119.271,2.351L491.426,192.8l-44.053,66,10.952,16.885,11.6-5.227Zm142.555,12.294,14.028-19.716-13.409,11.57Zm-218.149-3.9-42.294-10.4L340.619,224.72l22,50.259,63.367-19.769-.364.96L392.07,344.764,362.06,276.2l-45.625,14.234,27.4,57.786,48.491,33.591,54.823-48.1,1.1-3.048-19.187-2.816-.091-.967,23.569-8.14,11.61-32.255-6.193-9.548L423.77,292.352l22.407-33.568Zm173.459,33.53-22.683-41.7-11.8,16.194,33.142,26.67Zm-91.588,9.122-6.007-48.841-22.151,61.53ZM634.5,220.015l.668-8.8L592.2,248.294l2.928,5.384,9.809,7.893Zm-2.8,36.853,2.652-34.922L605.714,262.2l3.169,2.55Zm-42.882-6.981-32.962-26.525L533.52,254.009l1.9,36.113,11.291-3.9,42.112-36.335ZM361.657,275.279l-21.9-50.043-42.288,25.19L316,289.522ZM532.5,253.707l-.532-10.132-31.543,14.22,4.2,34.156Zm60.6-1.658-1.679-3.086-1.041.9Zm1.242,2.283-4.731-3.807L549.26,285.341l51.39-17.748.513-.721Zm57.615,103.837V250.931L632.649,257.6l-1.88,24.762,17.361,13.971-16.36,24.72ZM534.433,290.461l-1.847-35.171L504.807,293.4l.86,6.993Zm69.92-28.074-7.986-6.427,5.441,10ZM392,342.117l32.319-85.34-61.3,19.124ZM629.824,281.6l1.8-23.646L609.8,265.489ZM503.767,293.133l-4.293-34.909-28.755,12.963-5.462,15.175,13.009,20.056,5.939-5.21v6.6l11.849-4.092ZM457.4,276.093l-10.634-16.4L426.534,290Zm150.363-10.958-2.633-2.119-2.794,3.927.031.056Zm21.965,17.676-21.045-16.935-5.832,2.014,24.579,45.19,2.3-30.268Zm-2.438,32.105-25.4-46.7-.618.213L547.361,344.2l24.547,3.6,9.776-30.685L597.4,351.548l11.837,1.737,17.1-25.846Zm-81.038,29.127L599.652,269l-52.437,18.1-11.439,9.87,2.41,45.883Zm-81.683-58.734,4.877-13.549-10.573,4.767Zm182.22,11.232-16.116-12.969-2.36,31.128,2.916,5.361ZM477.506,307.085l-12.675-19.541-11.08,30.782,18.045-6.232Zm58.2-11.374,8.953-7.724-9.192,3.174Zm-193.52,51.368-26.715-56.344L277.81,302.484Zm192.566-50.541-.265-5.037-28.7,9.91,2.236,18.184ZM504.7,300.73l-.756-6.144-6.239,8.56Zm32.476,41.98-2.357-44.91-26.643,22.988,2.212,17.989Zm-30.059-22.329-2.292-18.636-8.15,2.815L486.3,318.8l8.129,12.532ZM483.2,308.154v-4.738l-4.389,3.85,1.274,1.964Zm2.51,9.748,9.308-12.771L484.2,308.867v6.707Zm-6.6-8.335-1.06-1.634-3.759,3.3Zm4.089,4.466v-4.82l-2.554.882Zm0,1.838-3.528-5.439-7.368,2.545-19.739,17.317,21.784,3.2L483.2,321.35ZM451.269,330.1l18.537-16.262-16.49,5.7L449.6,329.856ZM630.6,321l-2.43-4.468-.7,9.2Zm-145.521-2.234-.879-1.355v2.561Zm8.578,13.225-8-12.326h0l-1.462,2.005v13.264l5.167.758Zm102.561,19.384L581.857,319.9l-8.94,28.06ZM448.591,329.708l3.511-9.755-20.869,7.207Zm60.771,8.919-2.1-17.052-12.29,10.6,3.109,4.793ZM651.54,359.494l-20.4-37.5-3.825,5.779L625.2,355.629ZM483.2,334.788V323.043l-7.734,10.611Zm142.983-5.3-15.857,23.959h0l13.883,2.037Zm-175.9,1.48-1.027-.151h0l-.553,1.537Zm23.4,3.435-22.106-3.244L448,334.3l-24.8,68.9,8.275,5.732,51.728-6.525V342.335l-37.932,32.728-.731-.673Zm23.079,2.376-2.556-3.94-3.531,3.047ZM483.2,335.8l-8.4-1.233-26.9,36.9,35.3-30.453Zm-60.85,66.81,24.1-66.95L393.173,382.4Zm66.02-66.053-4.166-.611v4.206Zm9.121,1.339-7.812-1.147-5.474,4.723v60.809l22.648-2.857,31.014-43.59-.636-12.106-26.716-3.921,2.492,20.266-.916.333Zm12,1.761-10.681-1.568,12.942,19.953Zm36.117,5.3-7.365-1.081.559,10.647Zm26,3.816-24.891-3.653h0l-7.833,11.009,2.1,40-33.571,4.235L484.2,432.981v13.693l-6.526-4.521L464.554,460.6l44.333,23.062V418.916l34.748,17.657h0Zm25.109,3.685L572.61,348.92l-28.071,88.111,24.167,12.28L591.224,428.3l-10-32.7,20.823-31.463ZM391.551,382.491l-46.858-32.459,24.634,51.956Zm217.077-28.284L597.9,352.632l4.806,10.532Zm15.509,2.276-14.416-2.116-6.531,9.868,16.935,37.111.652-.608Zm27.82,4.083-26.828-3.938h0l-3.273,43.1h0l16.28-15.186-9.75,34.9L651.958,471.1ZM539.936,395.251l-1.986-37.81L508.2,399.254Zm79.417,6.815-16.814-36.848-20.218,30.549,9.717,31.779,27.316-25.481ZM422,403.584l-29.6-20.506-22.625,19.849,6.169,13.01,43.591-5.5Zm205.742,14.454,8.474-30.333-14.471,13.5-.24,3.165ZM484.2,431.256l21.86-30.725-21.86,2.757ZM620.487,404.55l-.7-1.524-27.428,25.586,11.846,38.741,8.544,4.341,3.619-12.957ZM483.2,432.662V403.415l-50.5,6.37,44.728,30.985ZM374.9,416.069l-5.906-12.456-17.575,15.418Zm55.094-6.949-7.14-4.946-2.2,6.125Zm197.333,10.413-5.977-13.1-3.6,47.372Zm-208.172-8.038h0l-42.76,5.394,23.2,48.938,19.557-54.332ZM543.33,437.539l-33.441-16.992v63.635L610.466,536.5l1.738-22.88-13.03,6.679,9.634-34.489-5.431-17.762-34.5-17.531-42.237,39.4Zm59.643,29.185L591.55,429.37h0l-21.9,20.424ZM483.2,444.765V434.387l-4.946,6.952Zm84.723,5.273L544.231,438l-15.478,48.584Zm-104.85,10.917L419.16,438.111l6.377,75.6ZM615.29,472.983l.694-9.142-2.323,8.314Zm-2.812-.307-7.863-4,4.692,15.346Zm2.73,1.387-1.821-.925L609.85,485.8l3.578,11.7Zm36.149,18.369-35.184-17.878-1.942,25.577,2.995,9.8Zm-40.974,45.157-100.5-52.28v33.647l99.817,27.61Zm2.836-37.346-3.869-12.655-8.6,30.782,11.541-5.915.927-12.211Zm3.1,10.146-2.3-7.519-.687,9.049Zm10.6,34.677-10.3-33.706-3.372,1.728-1.816,23.917Zm.41,1.34-15.987-8.317-.664,8.748,18.333,5.071Zm20.679,10.757-19.435-10.11,1.581,5.172Zm-18.65-4.121L610.6,547.853l-2.8,36.9,43.632,40.47Z" transform="translate(-275.554 -160.838)" fill="#fff" opacity="0.04"/>
</svg>
