<svg xmlns="http://www.w3.org/2000/svg" width="110.079" height="106.663" viewBox="0 0 110.079 106.663">
  <path id="desktop" d="M9.333,42H74.666V9.333H9.333Zm2.333-30.333H72.333v28H11.667ZM77,0H7A7,7,0,0,0,0,7V53.667a7,7,0,0,0,7,7H33.383L29.494,72.333h-9.66a1.167,1.167,0,1,0,0,2.333H64.167a1.167,1.167,0,1,0,0-2.333H54.51L50.621,60.667H77a7,7,0,0,0,7-7V7A7,7,0,0,0,77,0ZM52.049,72.333H31.954l3.889-11.667H48.16ZM81.666,53.667A4.672,4.672,0,0,1,77,58.333H7a4.672,4.672,0,0,1-4.667-4.667V7A4.672,4.672,0,0,1,7,2.333H77A4.672,4.672,0,0,1,81.666,7Z" transform="translate(37.333) rotate(30)" fill="#707070" opacity="0.153"/>
</svg>
