<svg xmlns="http://www.w3.org/2000/svg" width="376.961" height="229.848" viewBox="0 0 376.961 229.848">
  <g id="Groupe_46" data-name="Groupe 46" transform="translate(-56.566)">
    <path id="Tracé_91" data-name="Tracé 91" d="M573.91,648.719H683.039c4.308,0,4.315-6.7,0-6.7H573.91C569.6,642.024,569.595,648.719,573.91,648.719Z" transform="translate(-324.741 -419.961)" fill="#ccc" opacity="0.101"/>
    <path id="Tracé_92" data-name="Tracé 92" d="M434.061,393.255H325.3a4.339,4.339,0,0,0-4.334,4.334V419.2c5.425.128,8.947,4.6,9.8,10.039v19.588h.412a.248.248,0,0,1,.247.247v10.423a.248.248,0,0,1-.247.247h-.412v63c0,1.384-.014,3.909-.014,3.909h103.31a4.339,4.339,0,0,0,4.334-4.334V397.589a4.339,4.339,0,0,0-4.334-4.334Z" transform="translate(-214.356 -309.992)" fill="#ccc" opacity="0.08"/>
    <path id="Tracé_93" data-name="Tracé 93" d="M699.809,265.834V384.063H509.587V332.01a8.923,8.923,0,0,0-8.915-8.915H465V265.834Z" transform="translate(-278.026 -253.665)" fill="#ccc" opacity="0.079"/>
    <path id="Tracé_94" data-name="Tracé 94" d="M700.3,391.09H498.543v-.824h200.93V251.027a6.186,6.186,0,0,0-6.179-6.179H446.536a6.186,6.186,0,0,0-6.179,6.179V312.92h-.824V251.027a7.011,7.011,0,0,1,7-7H693.293a7.011,7.011,0,0,1,7,7Z" transform="translate(-266.769 -244.024)" fill="#3f3d56"/>
    <path id="Tracé_95" data-name="Tracé 95" d="M727.932,532.083H545.3v-.824H727.932a18.313,18.313,0,0,0,18.293-18.293v-6.012H545.3v-.824H747.049v6.836a19.138,19.138,0,0,1-19.117,19.117Z" transform="translate(-313.521 -359.889)" fill="#3f3d56"/>
    <path id="Tracé_96" data-name="Tracé 96" d="M684.561,592.364c-10.181-9.776-16.879-22.532-19.032-40.371H590.491c-.763,16.689-7.419,29.206-19.424,40.327l-1.268.044c12.386-11.225,19.208-23.833,19.886-40.8l.016-.4h76.561l.042.364c2.115,18.141,8.953,30.979,19.385,40.765Z" transform="translate(-324.353 -379.798)" fill="#3f3d56"/>
    <path id="Tracé_97" data-name="Tracé 97" d="M429.283,528.138H313.691v-.824H429.283A8.924,8.924,0,0,0,438.2,518.4V377.063a8.924,8.924,0,0,0-8.914-8.914H313.691a8.924,8.924,0,0,0-8.914,8.914v30.5h-.824v-30.5a9.749,9.749,0,0,1,9.738-9.738H429.283a9.749,9.749,0,0,1,9.738,9.738V518.4a9.749,9.749,0,0,1-9.738,9.738Z" transform="translate(-206.836 -298.529)" fill="#3f3d56"/>
    <path id="Tracé_98" data-name="Tracé 98" d="M422.78,381.58a2.793,2.793,0,1,1,2.793-2.794A2.793,2.793,0,0,1,422.78,381.58Zm0-4.941a2.148,2.148,0,1,0,2.148,2.148,2.148,2.148,0,0,0-2.148-2.148Z" transform="translate(-258.129 -302.361)" fill="#3f3d56"/>
    <path id="Tracé_99" data-name="Tracé 99" d="M422.169,644.24a3.564,3.564,0,1,1,3.564-3.564A3.564,3.564,0,0,1,422.169,644.24Zm0-6.3a2.741,2.741,0,1,0,2.741,2.741,2.741,2.741,0,0,0-2.741-2.741Z" transform="translate(-257.518 -417.789)" fill="#3f3d56"/>
    <path id="Tracé_100" data-name="Tracé 100" d="M280.4,560.258H242.138a10.877,10.877,0,0,1-10.865-10.865V450.311a10.877,10.877,0,0,1,10.865-10.865H280.4a10.877,10.877,0,0,1,10.865,10.865v17.731a1.073,1.073,0,0,1,.659.989v11.537a1.073,1.073,0,0,1-.659.989v67.836A10.877,10.877,0,0,1,280.4,560.258ZM242.138,440.27A10.052,10.052,0,0,0,232.1,450.31v99.083a10.052,10.052,0,0,0,10.041,10.041H280.4a10.053,10.053,0,0,0,10.041-10.041V480.815h.412a.247.247,0,0,0,.247-.247V469.031a.248.248,0,0,0-.247-.247h-.412V450.311A10.052,10.052,0,0,0,280.4,440.27Z" transform="translate(-174.707 -330.411)" fill="#3f3d56"/>
    <path id="Tracé_101" data-name="Tracé 101" d="M283.435,445.058h-4.995a3.709,3.709,0,0,1-3.434,5.109H253.086a3.709,3.709,0,0,1-3.434-5.109h-4.665a7.806,7.806,0,0,0-7.806,7.806V551.8a7.806,7.806,0,0,0,7.806,7.806h38.448a7.806,7.806,0,0,0,7.806-7.806h0V452.864a7.806,7.806,0,0,0-7.806-7.806Z" transform="translate(-177.319 -332.891)" fill="#ccc" opacity="0.08"/>
    <path id="Tracé_103" data-name="Tracé 103" d="M678.68,641.565H564.57a8.651,8.651,0,1,1,0-17.3H678.68a8.651,8.651,0,0,1,0,17.3ZM564.57,625.087a7.827,7.827,0,1,0,0,15.654H678.68a7.827,7.827,0,1,0,0-15.654Z" transform="translate(-318.218 -412.11)" fill="#3f3d56"/>
  </g>
</svg>
