<svg xmlns="http://www.w3.org/2000/svg" width="121.015" height="118" viewBox="0 0 121.015 118">
  <path id="star" d="M54.125,6.418a9,9,0,0,1,12.764,0L78.4,18a9,9,0,0,0,5.4,2.6l16.232,1.784a9,9,0,0,1,7.957,9.978l-1.873,16.228a9,9,0,0,0,1.333,5.841l8.728,13.808a9,9,0,0,1-2.84,12.442L99.488,89.332a9,9,0,0,0-3.735,4.685L90.4,109.449a9,9,0,0,1-11.5,5.538L63.5,109.55a9,9,0,0,0-5.993,0l-15.4,5.436a9,9,0,0,1-11.5-5.538L25.262,94.017a9,9,0,0,0-3.735-4.685L7.674,80.68a9,9,0,0,1-2.84-12.442L13.562,54.43A9,9,0,0,0,14.9,48.589L13.022,32.361a9,9,0,0,1,7.957-9.978L37.212,20.6a9,9,0,0,0,5.4-2.6Z" fill="#ccc" opacity="0.074"/>
</svg>
